# xmcd
#
# Track frame offsets: 
#        150
#        19707
#        45175
#        75979
#        96010
#        128931
#        145261
#        168323
#        202142
#        226593
#        244491
#        285559
#        316639
#
# Disc length: 4626 seconds
#
# Revision: 0
# Processed by: cddbd v1.5.2PL0 Copyright (c) Steve Scherf et al.
# Submitted via: ExactAudioCopyFreeDBPlugin 1.0
#
DISCID=9f12100d
DTITLE=Maria Callas / Maria Callas - The Incomparable
DYEAR=2013
DGENRE=Classical
TTITLE0=Gluck - Orphee et Eurydice - J'ai perdu mon Euridice
TTITLE1=Meyerbeer - Dinorah - Ombra leggera
TTITLE2=Rossini - Il barbiere di Siviglia - Una voce poco fa
TTITLE3=Donizetti - Anna Bolena - Al dolce guidami castel natio
TTITLE4=Bellini - Norma - Casta Diva
TTITLE5=Bellini - I Puritani - Son vergine vezzosa
TTITLE6=Thomas - Mignon - Ah, pour ce soir Je suis Titania (Polonaise)
TTITLE7=Verdi - Rigoletto - Gualtier Maldè? Caro nome
TTITLE8=Verdi - Il trovatore - Timor di me?... D'amor sull'ali rosee
TTITLE9=Verdi - I vespri siciliani - Mercé, dilette amiche
TTITLE10=Verdi - Un ballo in maschera - Ecco l'orrido campo...
TTITLE11=Verdi - La forza del destino - Son giunta! Grazie, o Dio... M
TTITLE11=adre, pietosa Vergine
TTITLE12=Verdi - Aida - Ritorna vincitor!
EXTD=
EXTT0=
EXTT1=
EXTT2=
EXTT3=
EXTT4=
EXTT5=
EXTT6=
EXTT7=
EXTT8=
EXTT9=
EXTT10=
EXTT11=
EXTT12=
PLAYORDER=
